<svg xmlns="http://www.w3.org/2000/svg" xmlns:xlink="http://www.w3.org/1999/xlink" width="200" zoomAndPan="magnify" viewBox="0 0 150 37.5" height="50" preserveAspectRatio="xMidYMid meet" version="1.0"><defs><g/><clipPath id="dfd16963a9"><rect x="0" width="101" y="0" height="30"/></clipPath></defs><path fill="#cf142b" d="M 31.160156 0.03125 L 32.226562 1.09375 C 32.664062 1.535156 33.058594 2.011719 33.402344 2.53125 C 33.75 3.046875 34.039062 3.59375 34.277344 4.167969 C 34.515625 4.742188 34.695312 5.335938 34.816406 5.945312 C 34.9375 6.554688 35 7.171875 35 7.792969 C 35 8.414062 34.9375 9.03125 34.816406 9.640625 C 34.695312 10.25 34.515625 10.84375 34.277344 11.417969 C 34.039062 11.992188 33.75 12.539062 33.402344 13.054688 C 33.058594 13.574219 32.664062 14.050781 32.226562 14.492188 L 24.050781 22.664062 L 16.289062 14.902344 Z M 31.160156 0.03125 " fill-opacity="1" fill-rule="nonzero"/><path fill="#cf142b" d="M 31.136719 35.589844 L 23.375 27.828125 L 38.246094 12.953125 L 39.3125 14.019531 C 39.75 14.457031 40.144531 14.9375 40.488281 15.453125 C 40.835938 15.972656 41.125 16.515625 41.363281 17.089844 C 41.601562 17.667969 41.78125 18.257812 41.902344 18.867188 C 42.023438 19.480469 42.085938 20.09375 42.085938 20.71875 C 42.085938 21.339844 42.023438 21.953125 41.902344 22.566406 C 41.78125 23.175781 41.601562 23.765625 41.363281 24.34375 C 41.125 24.917969 40.835938 25.460938 40.488281 25.980469 C 40.144531 26.496094 39.75 26.976562 39.3125 27.414062 Z M 31.136719 35.589844 " fill-opacity="1" fill-rule="nonzero"/><path fill="#f69d18" d="M 19.570312 1.414062 L 20.632812 2.476562 C 21.070312 2.917969 21.464844 3.394531 21.8125 3.914062 C 22.15625 4.429688 22.449219 4.976562 22.6875 5.550781 C 22.925781 6.125 23.105469 6.71875 23.226562 7.328125 C 23.351562 7.941406 23.410156 8.554688 23.410156 9.179688 C 23.410156 9.800781 23.351562 10.417969 23.230469 11.027344 C 23.109375 11.636719 22.929688 12.230469 22.691406 12.804688 C 22.453125 13.378906 22.160156 13.925781 21.816406 14.445312 C 21.46875 14.960938 21.078125 15.441406 20.636719 15.878906 L 12.460938 24.054688 L 11.398438 22.992188 C 10.960938 22.550781 10.566406 22.070312 10.21875 21.554688 C 9.875 21.039062 9.582031 20.492188 9.34375 19.917969 C 9.105469 19.34375 8.925781 18.75 8.804688 18.140625 C 8.679688 17.53125 8.621094 16.914062 8.621094 16.292969 C 8.621094 15.667969 8.679688 15.054688 8.800781 14.441406 C 8.921875 13.832031 9.101562 13.238281 9.339844 12.664062 C 9.578125 12.089844 9.871094 11.542969 10.214844 11.027344 C 10.5625 10.507812 10.953125 10.03125 11.394531 9.589844 Z M 19.570312 1.414062 " fill-opacity="1" fill-rule="nonzero"/><path fill="#f69d18" d="M 19.539062 36.976562 L 18.476562 35.914062 C 18.035156 35.472656 17.644531 34.992188 17.296875 34.476562 C 16.953125 33.960938 16.660156 33.414062 16.421875 32.839844 C 16.183594 32.265625 16.003906 31.671875 15.882812 31.0625 C 15.761719 30.453125 15.703125 29.835938 15.703125 29.214844 C 15.703125 28.589844 15.761719 27.976562 15.882812 27.367188 C 16.003906 26.753906 16.183594 26.164062 16.421875 25.589844 C 16.660156 25.015625 16.953125 24.46875 17.296875 23.949219 C 17.644531 23.433594 18.035156 22.953125 18.476562 22.515625 L 26.652344 14.339844 L 27.707031 15.398438 C 28.144531 15.835938 28.539062 16.316406 28.882812 16.832031 C 29.230469 17.351562 29.523438 17.894531 29.757812 18.46875 C 29.996094 19.046875 30.175781 19.636719 30.296875 20.246094 C 30.421875 20.859375 30.480469 21.472656 30.480469 22.097656 C 30.480469 22.71875 30.421875 23.335938 30.296875 23.945312 C 30.175781 24.554688 29.996094 25.148438 29.757812 25.722656 C 29.523438 26.296875 29.230469 26.84375 28.882812 27.359375 C 28.539062 27.875 28.144531 28.355469 27.707031 28.792969 L 19.53125 36.96875 Z M 19.539062 36.976562 " fill-opacity="1" fill-rule="nonzero"/><g transform="matrix(1, 0, 0, 1, 45, 4)"><g clip-path="url(#dfd16963a9)"><g fill="#000000" fill-opacity="1"><g transform="translate(0.997169, 21.810209)"><g><path d="M 7.835938 -5.402344 L 11.488281 -5.402344 C 11.351562 -3.359375 9.644531 -2.003906 7.582031 -2.003906 C 4.949219 -2.003906 3.320312 -3.910156 3.320312 -6.992188 C 3.320312 -10.074219 4.910156 -11.980469 7.484375 -11.980469 C 9.40625 -11.980469 10.800781 -10.960938 11.195312 -9.328125 L 13.925781 -9.328125 C 13.453125 -12.355469 11 -14.296875 7.464844 -14.296875 C 3.203125 -14.296875 0.550781 -11.390625 0.550781 -6.992188 C 0.550781 -2.59375 3.203125 0.3125 7.226562 0.3125 C 9.191406 0.3125 10.800781 -0.453125 11.785156 -1.847656 L 12.15625 0 L 14.082031 0 L 14.082031 -7.542969 L 7.835938 -7.542969 Z M 7.835938 -5.402344 "/></g></g></g><g fill="#000000" fill-opacity="1"><g transform="translate(16.01973, 21.810209)"><g><path d="M 5.714844 0.234375 C 8.800781 0.234375 10.859375 -1.847656 10.859375 -5.066406 C 10.859375 -8.289062 8.800781 -10.371094 5.714844 -10.371094 C 2.632812 -10.371094 0.550781 -8.289062 0.550781 -5.066406 C 0.550781 -1.847656 2.632812 0.234375 5.714844 0.234375 Z M 5.714844 -1.808594 C 4.105469 -1.808594 3.082031 -2.925781 3.082031 -5.066406 C 3.082031 -7.207031 4.105469 -8.328125 5.714844 -8.328125 C 7.304688 -8.328125 8.347656 -7.207031 8.347656 -5.066406 C 8.347656 -2.925781 7.304688 -1.808594 5.714844 -1.808594 Z M 5.714844 -1.808594 "/></g></g></g><g fill="#000000" fill-opacity="1"><g transform="translate(27.429022, 21.810209)"><g/></g></g><g fill="#000000" fill-opacity="1"><g transform="translate(31.670686, 21.810209)"><g><path d="M 10.332031 -13.984375 L 3.789062 -7.382812 L 3.789062 -13.984375 L 1.140625 -13.984375 L 1.140625 0 L 3.789062 0 L 3.789062 -4.378906 L 5.992188 -6.519531 L 10.46875 0 L 13.628906 0 L 7.875 -8.289062 L 13.628906 -13.984375 Z M 10.332031 -13.984375 "/></g></g></g><g fill="#000000" fill-opacity="1"><g transform="translate(45.416819, 21.810209)"><g><path d="M 3.457031 -11.3125 L 3.457031 -13.628906 L 1 -13.628906 L 1 -11.3125 Z M 3.476562 0 L 3.476562 -10.132812 L 1 -10.132812 L 1 0 Z M 3.476562 0 "/></g></g></g><g fill="#000000" fill-opacity="1"><g transform="translate(49.894131, 21.810209)"><g><path d="M 6.285156 -10.132812 L 4.28125 -10.132812 L 4.28125 -13.082031 L 1.828125 -13.082031 L 1.828125 -10.132812 L 0.253906 -10.132812 L 0.253906 -8.210938 L 1.828125 -8.210938 L 1.828125 -2.515625 C 1.828125 -0.648438 2.847656 0.0585938 4.988281 0.0585938 C 5.382812 0.0585938 5.851562 0.0390625 6.285156 0 L 6.285156 -1.90625 L 5.441406 -1.90625 C 4.617188 -1.90625 4.28125 -2.121094 4.28125 -2.789062 L 4.28125 -8.210938 L 6.285156 -8.210938 Z M 6.285156 -10.132812 "/></g></g></g><g fill="#000000" fill-opacity="1"><g transform="translate(56.629735, 21.810209)"><g><path d="M 5.558594 0.234375 C 8.152344 0.234375 10.035156 -1.296875 10.3125 -3.769531 L 7.835938 -3.769531 C 7.640625 -2.433594 6.675781 -1.828125 5.558594 -1.828125 C 4.125 -1.828125 3.082031 -2.847656 3.082031 -5.066406 C 3.082031 -7.285156 4.085938 -8.308594 5.558594 -8.308594 C 6.65625 -8.308594 7.5625 -7.738281 7.796875 -6.480469 L 10.273438 -6.480469 C 9.976562 -8.859375 8.210938 -10.371094 5.558594 -10.371094 C 2.535156 -10.371094 0.550781 -8.308594 0.550781 -5.066406 C 0.550781 -1.828125 2.554688 0.234375 5.558594 0.234375 Z M 5.558594 0.234375 "/></g></g></g><g fill="#000000" fill-opacity="1"><g transform="translate(67.292805, 21.810209)"><g><path d="M 6.558594 -10.371094 C 5.183594 -10.371094 4.144531 -9.703125 3.476562 -8.777344 L 3.476562 -13.984375 L 1 -13.984375 L 1 0 L 3.476562 0 L 3.476562 -5.675781 C 3.476562 -7.484375 4.65625 -8.230469 5.734375 -8.230469 C 6.992188 -8.230469 7.640625 -7.601562 7.640625 -6.304688 L 7.640625 0 L 10.113281 0 L 10.113281 -6.71875 C 10.113281 -9.132812 8.679688 -10.371094 6.558594 -10.371094 Z M 6.558594 -10.371094 "/></g></g></g><g fill="#000000" fill-opacity="1"><g transform="translate(78.407539, 21.810209)"><g><path d="M 5.597656 0.234375 C 8.03125 0.234375 9.78125 -1.101562 10.3125 -3.140625 L 7.914062 -3.140625 C 7.5625 -2.238281 6.796875 -1.6875 5.617188 -1.6875 C 4.183594 -1.6875 3.183594 -2.515625 2.984375 -4.300781 L 10.566406 -4.300781 L 10.566406 -4.890625 C 10.566406 -8.113281 8.660156 -10.371094 5.558594 -10.371094 C 2.554688 -10.371094 0.550781 -8.25 0.550781 -5.066406 C 0.550781 -1.828125 2.613281 0.234375 5.597656 0.234375 Z M 3.003906 -6.03125 C 3.242188 -7.679688 4.222656 -8.445312 5.539062 -8.445312 C 7.011719 -8.445312 7.894531 -7.464844 8.09375 -6.03125 Z M 3.003906 -6.03125 "/></g></g></g><g fill="#000000" fill-opacity="1"><g transform="translate(89.561549, 21.810209)"><g><path d="M 6.558594 -10.371094 C 5.125 -10.371094 4.046875 -9.644531 3.398438 -8.679688 L 3.398438 -10.132812 L 1 -10.132812 L 1 0 L 3.476562 0 L 3.476562 -5.675781 C 3.476562 -7.484375 4.65625 -8.230469 5.734375 -8.230469 C 6.992188 -8.230469 7.640625 -7.601562 7.640625 -6.304688 L 7.640625 0 L 10.113281 0 L 10.113281 -6.71875 C 10.113281 -9.132812 8.679688 -10.371094 6.558594 -10.371094 Z M 6.558594 -10.371094 "/></g></g></g></g></g></svg>