<svg xmlns="http://www.w3.org/2000/svg" xmlns:xlink="http://www.w3.org/1999/xlink" width="512" zoomAndPan="magnify" viewBox="0 0 384 383.999986" height="512" preserveAspectRatio="xMidYMid meet" version="1.0"><defs><g/><clipPath id="68fc13644b"><path d="M 106 19.199219 L 282 19.199219 L 282 231 L 106 231 Z M 106 19.199219 " clip-rule="nonzero"/></clipPath><clipPath id="b9fef09888"><path d="M 101 153 L 240 153 L 240 364.949219 L 101 364.949219 Z M 101 153 " clip-rule="nonzero"/></clipPath></defs><g fill="#000000" fill-opacity="1"><g transform="translate(131.94212, 300.524889)"><g><path d="M -20.546875 -21.046875 L -10.46875 -31.125 L -7.5 -28.15625 L -10.90625 -24.75 L 6.921875 -6.921875 L 3.65625 -3.65625 L -14.171875 -21.484375 L -17.578125 -18.078125 Z M -20.546875 -21.046875 "/></g></g></g><g fill="#000000" fill-opacity="1"><g transform="translate(142.514782, 289.952226)"><g><path d="M -19.609375 -21.984375 L -16.34375 -25.25 L 4.453125 -4.453125 L 1.1875 -1.1875 Z M -18.84375 -31.5 L -18.59375 -25.1875 L -20.796875 -22.984375 L -22.0625 -28.28125 Z M -18.84375 -31.5 "/></g></g></g><g fill="#000000" fill-opacity="1"><g transform="translate(148.157494, 284.309515)"><g><path d="M 8.015625 -8.015625 C 7.835938 -8.109375 7.671875 -8.195312 7.515625 -8.28125 C 7.359375 -8.363281 7.175781 -8.476562 6.96875 -8.625 C 6.757812 -8.769531 6.507812 -8.976562 6.21875 -9.25 C 5.925781 -9.519531 5.578125 -9.859375 5.171875 -10.265625 L 1.890625 -13.546875 C 0.921875 -14.515625 0.0703125 -15.023438 -0.65625 -15.078125 C -1.394531 -15.140625 -2.140625 -14.796875 -2.890625 -14.046875 L -4.015625 -12.921875 L 4.453125 -4.453125 L 1.1875 -1.1875 L -19.609375 -21.984375 L -14.671875 -26.921875 C -12.972656 -28.617188 -11.347656 -29.453125 -9.796875 -29.421875 C -8.242188 -29.390625 -6.664062 -28.570312 -5.0625 -26.96875 L -3.421875 -25.328125 C -1.285156 -23.191406 -0.59375 -21.070312 -1.34375 -18.96875 C -0.175781 -19.46875 0.941406 -19.492188 2.015625 -19.046875 C 3.085938 -18.597656 4.171875 -17.828125 5.265625 -16.734375 L 8.484375 -13.515625 C 8.992188 -13.003906 9.457031 -12.570312 9.875 -12.21875 C 10.300781 -11.875 10.789062 -11.582031 11.34375 -11.34375 Z M -13.375 -22.28125 L -6.984375 -15.890625 L -5.703125 -17.171875 C -5.085938 -17.785156 -4.765625 -18.421875 -4.734375 -19.078125 C -4.710938 -19.742188 -5.117188 -20.492188 -5.953125 -21.328125 L -7.984375 -23.359375 C -8.734375 -24.109375 -9.410156 -24.519531 -10.015625 -24.59375 C -10.628906 -24.675781 -11.222656 -24.429688 -11.796875 -23.859375 Z M -13.375 -22.28125 "/></g></g></g><g fill="#000000" fill-opacity="1"><g transform="translate(160.09628, 272.370729)"><g><path d="M -19.609375 -21.984375 L -16.34375 -25.25 L 4.453125 -4.453125 L 1.1875 -1.1875 Z M -19.609375 -21.984375 "/></g></g></g><g fill="#000000" fill-opacity="1"><g transform="translate(165.738991, 266.728017)"><g><path d="M 2.078125 -14.140625 L -10.46875 -31.125 L -5.921875 -35.671875 L 14.875 -14.875 L 11.78125 -11.78125 L -3.125 -26.6875 L 9.53125 -9.53125 L 6.4375 -6.4375 L -10.6875 -18.71875 L 4.015625 -4.015625 L 1.15625 -1.15625 L -19.640625 -21.953125 L -15.09375 -26.5 Z M 2.078125 -14.140625 "/></g></g></g><g fill="#000000" fill-opacity="1"><g transform="translate(181.805865, 250.661144)"><g><path d="M 11.75 -11.75 L 8.46875 -8.46875 L 4.140625 -11.671875 L 0.125 -7.65625 L 3.328125 -3.328125 L 0.328125 -0.328125 L -17.140625 -24.453125 L -12.359375 -29.234375 Z M -2.28125 -10.90625 L 0.859375 -14.046875 L -11.234375 -22.984375 Z M -2.28125 -10.90625 "/></g></g></g><g fill="#000000" fill-opacity="1"><g transform="translate(193.893143, 238.573865)"><g><path d="M 8.015625 -8.015625 C 7.835938 -8.109375 7.671875 -8.195312 7.515625 -8.28125 C 7.359375 -8.363281 7.175781 -8.476562 6.96875 -8.625 C 6.757812 -8.769531 6.507812 -8.976562 6.21875 -9.25 C 5.925781 -9.519531 5.578125 -9.859375 5.171875 -10.265625 L 1.890625 -13.546875 C 0.921875 -14.515625 0.0703125 -15.023438 -0.65625 -15.078125 C -1.394531 -15.140625 -2.140625 -14.796875 -2.890625 -14.046875 L -4.015625 -12.921875 L 4.453125 -4.453125 L 1.1875 -1.1875 L -19.609375 -21.984375 L -14.671875 -26.921875 C -12.972656 -28.617188 -11.347656 -29.453125 -9.796875 -29.421875 C -8.242188 -29.390625 -6.664062 -28.570312 -5.0625 -26.96875 L -3.421875 -25.328125 C -1.285156 -23.191406 -0.59375 -21.070312 -1.34375 -18.96875 C -0.175781 -19.46875 0.941406 -19.492188 2.015625 -19.046875 C 3.085938 -18.597656 4.171875 -17.828125 5.265625 -16.734375 L 8.484375 -13.515625 C 8.992188 -13.003906 9.457031 -12.570312 9.875 -12.21875 C 10.300781 -11.875 10.789062 -11.582031 11.34375 -11.34375 Z M -13.375 -22.28125 L -6.984375 -15.890625 L -5.703125 -17.171875 C -5.085938 -17.785156 -4.765625 -18.421875 -4.734375 -19.078125 C -4.710938 -19.742188 -5.117188 -20.492188 -5.953125 -21.328125 L -7.984375 -23.359375 C -8.734375 -24.109375 -9.410156 -24.519531 -10.015625 -24.59375 C -10.628906 -24.675781 -11.222656 -24.429688 -11.796875 -23.859375 Z M -13.375 -22.28125 "/></g></g></g><g fill="#000000" fill-opacity="1"><g transform="translate(205.83193, 226.635079)"><g><path d="M -19.609375 -21.984375 L -16.34375 -25.25 L 4.453125 -4.453125 L 1.1875 -1.1875 Z M -19.609375 -21.984375 "/></g></g></g><g fill="#000000" fill-opacity="1"><g transform="translate(211.474641, 220.992368)"><g><path d="M -0.59375 -8.96875 C 0.15625 -8.21875 0.835938 -7.84375 1.453125 -7.84375 C 2.066406 -7.84375 2.628906 -8.097656 3.140625 -8.609375 C 3.660156 -9.128906 3.914062 -9.691406 3.90625 -10.296875 C 3.90625 -10.910156 3.53125 -11.59375 2.78125 -12.34375 L -8.453125 -23.578125 C -9.203125 -24.328125 -9.878906 -24.703125 -10.484375 -24.703125 C -11.085938 -24.703125 -11.648438 -24.441406 -12.171875 -23.921875 C -12.679688 -23.410156 -12.9375 -22.847656 -12.9375 -22.234375 C -12.945312 -21.628906 -12.578125 -20.953125 -11.828125 -20.203125 Z M -14.875 -16.71875 C -16.550781 -18.394531 -17.414062 -20.109375 -17.46875 -21.859375 C -17.53125 -23.617188 -16.757812 -25.300781 -15.15625 -26.90625 C -13.550781 -28.507812 -11.867188 -29.285156 -10.109375 -29.234375 C -8.347656 -29.179688 -6.628906 -28.316406 -4.953125 -26.640625 L 5.84375 -15.84375 C 7.53125 -14.15625 8.398438 -12.429688 8.453125 -10.671875 C 8.503906 -8.910156 7.726562 -7.226562 6.125 -5.625 C 4.519531 -4.019531 2.835938 -3.242188 1.078125 -3.296875 C -0.671875 -3.359375 -2.390625 -4.234375 -4.078125 -5.921875 Z M -14.875 -16.71875 "/></g></g></g><g clip-path="url(#68fc13644b)"><path fill="#cf142b" d="M 245.460938 19.488281 L 255.390625 29.417969 C 256.414062 30.441406 257.410156 31.492188 258.382812 32.5625 C 259.355469 33.636719 260.300781 34.730469 261.21875 35.851562 C 262.140625 36.96875 263.03125 38.113281 263.890625 39.273438 C 264.753906 40.4375 265.589844 41.621094 266.390625 42.824219 C 267.195312 44.027344 267.972656 45.25 268.714844 46.492188 C 269.460938 47.734375 270.171875 48.996094 270.855469 50.273438 C 271.539062 51.546875 272.1875 52.839844 272.808594 54.152344 C 273.425781 55.460938 274.015625 56.78125 274.566406 58.121094 C 275.121094 59.457031 275.644531 60.808594 276.128906 62.171875 C 276.617188 63.535156 277.074219 64.910156 277.492188 66.296875 C 277.914062 67.679688 278.300781 69.074219 278.652344 70.480469 C 279.003906 71.882812 279.320312 73.296875 279.601562 74.71875 C 279.886719 76.136719 280.132812 77.5625 280.34375 78.996094 C 280.558594 80.425781 280.734375 81.863281 280.875 83.304688 C 281.019531 84.746094 281.125 86.191406 281.195312 87.636719 C 281.265625 89.082031 281.300781 90.527344 281.300781 91.976562 C 281.300781 93.425781 281.265625 94.871094 281.195312 96.316406 C 281.125 97.765625 281.019531 99.207031 280.875 100.648438 C 280.734375 102.089844 280.558594 103.527344 280.34375 104.957031 C 280.132812 106.390625 279.886719 107.816406 279.601562 109.238281 C 279.320312 110.65625 279.003906 112.070312 278.652344 113.472656 C 278.300781 114.878906 277.914062 116.273438 277.492188 117.660156 C 277.074219 119.042969 276.617188 120.417969 276.128906 121.78125 C 275.644531 123.144531 275.121094 124.496094 274.566406 125.832031 C 274.015625 127.171875 273.425781 128.492188 272.808594 129.804688 C 272.1875 131.113281 271.539062 132.40625 270.855469 133.679688 C 270.171875 134.957031 269.460938 136.21875 268.714844 137.460938 C 267.972656 138.703125 267.195312 139.925781 266.390625 141.128906 C 265.589844 142.332031 264.753906 143.515625 263.890625 144.679688 C 263.03125 145.839844 262.140625 146.984375 261.21875 148.101562 C 260.300781 149.222656 259.355469 150.316406 258.382812 151.390625 C 257.410156 152.464844 256.414062 153.511719 255.390625 154.535156 L 179.058594 230.867188 L 106.570312 158.378906 Z M 245.460938 19.488281 " fill-opacity="1" fill-rule="nonzero"/></g><path fill="#cf142b" d="M 245.214844 351.578125 L 172.726562 279.089844 L 311.628906 140.183594 L 321.558594 150.113281 C 322.582031 151.136719 323.582031 152.183594 324.554688 153.257812 C 325.527344 154.332031 326.472656 155.425781 327.390625 156.546875 C 328.308594 157.664062 329.199219 158.804688 330.0625 159.96875 C 330.925781 161.132812 331.757812 162.316406 332.5625 163.519531 C 333.367188 164.722656 334.140625 165.945312 334.886719 167.1875 C 335.628906 168.429688 336.34375 169.6875 337.027344 170.964844 C 337.707031 172.242188 338.359375 173.535156 338.976562 174.84375 C 339.597656 176.152344 340.183594 177.476562 340.738281 178.816406 C 341.292969 180.152344 341.8125 181.503906 342.300781 182.867188 C 342.789062 184.230469 343.242188 185.605469 343.664062 186.988281 C 344.082031 188.375 344.46875 189.769531 344.820312 191.175781 C 345.171875 192.578125 345.488281 193.992188 345.773438 195.410156 C 346.054688 196.832031 346.300781 198.257812 346.515625 199.691406 C 346.726562 201.121094 346.90625 202.558594 347.046875 204 C 347.1875 205.441406 347.292969 206.882812 347.367188 208.332031 C 347.4375 209.777344 347.472656 211.222656 347.472656 212.671875 C 347.472656 214.117188 347.4375 215.566406 347.367188 217.011719 C 347.292969 218.457031 347.1875 219.902344 347.046875 221.34375 C 346.90625 222.785156 346.726562 224.21875 346.515625 225.652344 C 346.300781 227.085938 346.054688 228.511719 345.773438 229.929688 C 345.488281 231.351562 345.171875 232.761719 344.820312 234.167969 C 344.46875 235.574219 344.082031 236.96875 343.664062 238.351562 C 343.242188 239.738281 342.789062 241.113281 342.300781 242.476562 C 341.8125 243.839844 341.292969 245.191406 340.738281 246.527344 C 340.183594 247.863281 339.597656 249.1875 338.976562 250.496094 C 338.359375 251.804688 337.707031 253.097656 337.027344 254.375 C 336.34375 255.652344 335.628906 256.914062 334.886719 258.15625 C 334.140625 259.394531 333.367188 260.617188 332.5625 261.824219 C 331.757812 263.027344 330.925781 264.210938 330.0625 265.375 C 329.199219 266.535156 328.308594 267.675781 327.390625 268.796875 C 326.472656 269.914062 325.527344 271.011719 324.554688 272.085938 C 323.582031 273.15625 322.582031 274.207031 321.558594 275.230469 Z M 245.214844 351.578125 " fill-opacity="1" fill-rule="nonzero"/><path fill="#f69d18" d="M 137.1875 32.410156 L 147.117188 42.339844 C 148.140625 43.363281 149.140625 44.414062 150.113281 45.484375 C 151.089844 46.558594 152.035156 47.652344 152.953125 48.773438 C 153.875 49.890625 154.765625 51.03125 155.628906 52.195312 C 156.492188 53.359375 157.328125 54.542969 158.132812 55.746094 C 158.9375 56.949219 159.714844 58.171875 160.460938 59.414062 C 161.203125 60.65625 161.917969 61.917969 162.601562 63.195312 C 163.285156 64.472656 163.9375 65.765625 164.558594 67.074219 C 165.179688 68.382812 165.765625 69.707031 166.320312 71.042969 C 166.875 72.382812 167.398438 73.730469 167.886719 75.097656 C 168.375 76.460938 168.828125 77.835938 169.25 79.21875 C 169.671875 80.605469 170.058594 82 170.410156 83.40625 C 170.765625 84.8125 171.082031 86.222656 171.363281 87.644531 C 171.648438 89.066406 171.894531 90.492188 172.109375 91.925781 C 172.324219 93.359375 172.5 94.792969 172.644531 96.234375 C 172.785156 97.679688 172.890625 99.121094 172.964844 100.570312 C 173.035156 102.015625 173.070312 103.464844 173.070312 104.910156 C 173.074219 106.359375 173.039062 107.808594 172.96875 109.253906 C 172.894531 110.703125 172.789062 112.144531 172.648438 113.585938 C 172.507812 115.027344 172.332031 116.464844 172.117188 117.898438 C 171.90625 119.332031 171.660156 120.757812 171.375 122.179688 C 171.09375 123.601562 170.777344 125.011719 170.425781 126.417969 C 170.074219 127.824219 169.6875 129.21875 169.269531 130.605469 C 168.847656 131.992188 168.394531 133.367188 167.90625 134.730469 C 167.417969 136.09375 166.898438 137.445312 166.34375 138.785156 C 165.789062 140.121094 165.203125 141.445312 164.582031 142.757812 C 163.964844 144.066406 163.3125 145.359375 162.632812 146.636719 C 161.949219 147.914062 161.234375 149.175781 160.488281 150.417969 C 159.746094 151.660156 158.972656 152.882812 158.167969 154.085938 C 157.363281 155.292969 156.527344 156.476562 155.664062 157.640625 C 154.800781 158.800781 153.910156 159.945312 152.992188 161.0625 C 152.074219 162.183594 151.128906 163.28125 150.15625 164.355469 C 149.183594 165.425781 148.183594 166.476562 147.160156 167.5 L 70.828125 243.832031 L 60.898438 233.902344 C 59.871094 232.878906 58.875 231.832031 57.898438 230.757812 C 56.925781 229.6875 55.980469 228.589844 55.0625 227.472656 C 54.140625 226.351562 53.25 225.210938 52.386719 224.050781 C 51.523438 222.886719 50.6875 221.703125 49.882812 220.5 C 49.078125 219.296875 48.300781 218.074219 47.558594 216.832031 C 46.8125 215.589844 46.097656 214.328125 45.414062 213.054688 C 44.730469 211.777344 44.078125 210.484375 43.457031 209.175781 C 42.839844 207.867188 42.25 206.542969 41.695312 205.203125 C 41.140625 203.867188 40.617188 202.515625 40.128906 201.152344 C 39.640625 199.789062 39.1875 198.414062 38.765625 197.027344 C 38.34375 195.644531 37.957031 194.25 37.605469 192.84375 C 37.253906 191.4375 36.933594 190.027344 36.652344 188.605469 C 36.367188 187.183594 36.121094 185.757812 35.90625 184.328125 C 35.691406 182.894531 35.515625 181.457031 35.371094 180.015625 C 35.230469 178.574219 35.121094 177.128906 35.050781 175.683594 C 34.980469 174.238281 34.941406 172.789062 34.941406 171.34375 C 34.941406 169.894531 34.976562 168.445312 35.046875 167 C 35.117188 165.554688 35.222656 164.109375 35.363281 162.667969 C 35.503906 161.226562 35.683594 159.789062 35.894531 158.355469 C 36.105469 156.921875 36.351562 155.496094 36.636719 154.078125 C 36.917969 152.65625 37.234375 151.242188 37.585938 149.839844 C 37.9375 148.433594 38.320312 147.039062 38.742188 145.652344 C 39.160156 144.265625 39.617188 142.890625 40.101562 141.527344 C 40.589844 140.164062 41.109375 138.8125 41.664062 137.472656 C 42.21875 136.136719 42.804688 134.8125 43.425781 133.5 C 44.042969 132.191406 44.691406 130.898438 45.375 129.621094 C 46.058594 128.34375 46.769531 127.082031 47.515625 125.839844 C 48.257812 124.597656 49.035156 123.375 49.839844 122.171875 C 50.640625 120.964844 51.476562 119.78125 52.339844 118.617188 C 53.199219 117.457031 54.089844 116.3125 55.007812 115.195312 C 55.929688 114.074219 56.875 112.976562 57.847656 111.902344 C 58.820312 110.832031 59.816406 109.78125 60.839844 108.757812 Z M 137.1875 32.410156 " fill-opacity="1" fill-rule="nonzero"/><g clip-path="url(#b9fef09888)"><path fill="#f69d18" d="M 136.921875 364.511719 L 126.992188 354.582031 C 125.96875 353.558594 124.972656 352.511719 124 351.4375 C 123.027344 350.363281 122.082031 349.269531 121.164062 348.148438 C 120.246094 347.03125 119.355469 345.890625 118.492188 344.726562 C 117.628906 343.5625 116.796875 342.378906 115.992188 341.175781 C 115.1875 339.972656 114.410156 338.75 113.667969 337.507812 C 112.921875 336.265625 112.210938 335.007812 111.527344 333.730469 C 110.84375 332.453125 110.195312 331.160156 109.574219 329.851562 C 108.957031 328.542969 108.371094 327.21875 107.816406 325.878906 C 107.261719 324.542969 106.738281 323.191406 106.253906 321.828125 C 105.765625 320.464844 105.308594 319.089844 104.890625 317.707031 C 104.46875 316.320312 104.082031 314.925781 103.730469 313.519531 C 103.378906 312.117188 103.0625 310.703125 102.78125 309.285156 C 102.5 307.863281 102.25 306.4375 102.039062 305.003906 C 101.824219 303.574219 101.648438 302.136719 101.507812 300.695312 C 101.363281 299.253906 101.257812 297.8125 101.1875 296.363281 C 101.117188 294.917969 101.082031 293.472656 101.082031 292.023438 C 101.082031 290.578125 101.117188 289.128906 101.1875 287.683594 C 101.257812 286.238281 101.363281 284.792969 101.507812 283.351562 C 101.648438 281.910156 101.824219 280.476562 102.039062 279.042969 C 102.25 277.609375 102.5 276.183594 102.78125 274.765625 C 103.0625 273.34375 103.378906 271.933594 103.730469 270.527344 C 104.082031 269.121094 104.46875 267.726562 104.890625 266.34375 C 105.3125 264.957031 105.765625 263.582031 106.253906 262.21875 C 106.738281 260.855469 107.261719 259.503906 107.816406 258.167969 C 108.371094 256.832031 108.957031 255.507812 109.574219 254.199219 C 110.195312 252.890625 110.84375 251.597656 111.527344 250.320312 C 112.210938 249.042969 112.921875 247.78125 113.667969 246.542969 C 114.410156 245.300781 115.1875 244.078125 115.992188 242.871094 C 116.796875 241.667969 117.628906 240.484375 118.492188 239.320312 C 119.355469 238.160156 120.242188 237.019531 121.164062 235.898438 C 122.082031 234.78125 123.027344 233.683594 124 232.609375 C 124.972656 231.539062 125.96875 230.488281 126.992188 229.464844 L 203.324219 153.132812 L 213.183594 162.992188 C 214.207031 164.015625 215.207031 165.0625 216.179688 166.136719 C 217.152344 167.210938 218.097656 168.304688 219.015625 169.425781 C 219.933594 170.542969 220.824219 171.6875 221.6875 172.847656 C 222.550781 174.011719 223.382812 175.195312 224.1875 176.398438 C 224.992188 177.601562 225.765625 178.824219 226.511719 180.066406 C 227.253906 181.308594 227.96875 182.570312 228.652344 183.847656 C 229.332031 185.121094 229.984375 186.414062 230.601562 187.722656 C 231.222656 189.035156 231.808594 190.355469 232.363281 191.695312 C 232.917969 193.03125 233.4375 194.382812 233.925781 195.746094 C 234.414062 197.109375 234.867188 198.484375 235.289062 199.867188 C 235.707031 201.253906 236.09375 202.648438 236.445312 204.054688 C 236.796875 205.457031 237.113281 206.871094 237.398438 208.289062 C 237.679688 209.710938 237.925781 211.136719 238.140625 212.570312 C 238.351562 214 238.527344 215.4375 238.671875 216.878906 C 238.8125 218.320312 238.917969 219.761719 238.992188 221.210938 C 239.0625 222.65625 239.097656 224.101562 239.097656 225.550781 C 239.097656 227 239.0625 228.445312 238.992188 229.890625 C 238.917969 231.335938 238.8125 232.78125 238.671875 234.222656 C 238.53125 235.664062 238.351562 237.101562 238.140625 238.53125 C 237.925781 239.964844 237.679688 241.390625 237.398438 242.808594 C 237.113281 244.230469 236.796875 245.644531 236.445312 247.046875 C 236.09375 248.453125 235.707031 249.847656 235.289062 251.230469 C 234.867188 252.617188 234.414062 253.992188 233.925781 255.355469 C 233.4375 256.71875 232.917969 258.070312 232.363281 259.40625 C 231.808594 260.746094 231.222656 262.066406 230.601562 263.375 C 229.984375 264.6875 229.332031 265.980469 228.652344 267.253906 C 227.96875 268.53125 227.253906 269.792969 226.511719 271.035156 C 225.765625 272.277344 224.992188 273.5 224.1875 274.703125 C 223.382812 275.90625 222.550781 277.089844 221.6875 278.253906 C 220.824219 279.414062 219.933594 280.558594 219.015625 281.675781 C 218.097656 282.796875 217.152344 283.890625 216.179688 284.964844 C 215.207031 286.035156 214.207031 287.085938 213.183594 288.109375 L 136.851562 364.441406 Z M 136.921875 364.511719 " fill-opacity="1" fill-rule="nonzero"/></g></svg>